Coordinates
version=1
nRows=14
nColumns=46
inDegrees=yes

Units are S.I. units (second, meters, Newtons, ...)
Angles are in degrees.

endheader
time	pelvis_tilt	pelvis_list	pelvis_rotation	pelvis_tx	pelvis_ty	pelvis_tz	bb_angle	bb_tx	bb_ty	bb_tz	hip_flexion_r	hip_adduction_r	hip_rotation_r	knee_angle_r	knee_angle_r_beta	ankle_angle_r	subtalar_angle_r	mtp_angle_r	crank_angle_r	hip_flexion_l	hip_adduction_l	hip_rotation_l	knee_angle_l	knee_angle_l_beta	ankle_angle_l	subtalar_angle_l	mtp_angle_l	crank_angle_l	lumbar_extension	lumbar_bending	lumbar_rotation	arm_flex_r	arm_add_r	arm_rot_r	elbow_flex_r	pro_sup_r	wrist_flex_r	wrist_dev_r	arm_flex_l	arm_add_l	arm_rot_l	elbow_flex_l	pro_sup_l	wrist_flex_l	wrist_dev_l
      0.00000000	    -28.13254784	     -6.42090096	     -5.31385000	      0.09192230	      1.10602880	     -0.23618189	      0.00000000	      0.50000000	      0.00000000	      0.25000000	     94.10778427	      1.97298184	     -1.40355336	     87.47171306	      1.52666940	     22.85644492	     -4.78981754	      0.00000000	      0.00000000	     52.26313341	    -12.78082002	      0.59990443	     42.12228325	      0.73517253	      5.39910720	     -0.75662334	      0.00000000	      0.00000000	    -44.79578808	      2.68310827	      6.55972823	     89.74899733	     -3.44908383	     34.30863711	     36.91941912	     26.33065479	      0.00000000	      0.00000000	     89.75630308	     -7.49147183	     31.80550886	     36.69959593	     26.18122528	      0.00000000	      0.00000000
      0.00500000	    -28.17452046	     -6.50458485	     -5.35486899	      0.09182321	      1.10596967	     -0.23606646	      0.00000000	      0.50000000	      0.00000000	      0.25000000	     94.13206421	      2.03441271	     -1.48844372	     87.43456556	      1.52602105	     22.82169656	     -4.88849630	      0.00000000	      0.00000000	     52.33656338	    -12.89962557	      0.62534404	     42.17211047	      0.73604218	      5.54862179	     -0.52787121	      0.00000000	      0.00000000	    -44.75475464	      2.70690857	      6.69859804	     89.75182775	     -3.70601010	     34.42474651	     36.10481616	     31.11039029	      0.00000000	      0.00000000	     89.75725346	     -7.56273179	     31.90426423	     36.04005308	     30.72300526	      0.00000000	      0.00000000
      0.01000000	    -28.13121261	     -6.41463021	     -5.32183934	      0.09179027	      1.10603639	     -0.23615314	      0.00000000	      0.50000000	      0.00000000	      0.25000000	     94.11392063	      1.98560437	     -1.39230727	     87.45299752	      1.52634275	     22.82461225	     -4.81397120	      0.00000000	      0.00000000	     52.25060050	    -12.79137136	      0.58127051	     42.11576751	      0.73505881	      5.53842549	     -0.59552071	      0.00000000	      0.00000000	    -44.81019243	      2.65721417	      6.53498157	     89.75034830	     -3.60804077	     34.80758290	     37.58602988	     23.76745033	      0.00000000	      0.00000000	     89.75606185	     -7.69113215	     32.41420457	     37.57547785	     22.20701180	      0.00000000	      0.00000000
      0.01500000	    -28.10443165	     -6.07017612	     -5.69193186	      0.09225414	      1.10648983	     -0.23520394	      0.00000000	      0.50000000	      0.00000000	      0.25000000	     94.16678150	      2.49885343	     -1.07214917	     87.48802598	      1.52695411	     22.51313311	     -5.31569282	      0.00000000	      0.00000000	     51.90364981	    -13.15419928	     -0.72782447	     41.80563751	      0.72964602	      5.75883525	     -0.01280024	      0.00000000	      0.00000000	    -44.83435285	      2.10977650	      6.51954086	     89.74553778	     -3.64824942	     35.43456300	     37.03338861	     24.84722135	      0.00000000	      0.00000000	     89.75244852	     -8.12451510	     32.77957180	     37.58819941	     23.54438546	      0.00000000	      0.00000000
      0.02000000	    -28.36530974	     -6.10915244	     -5.23315172	      0.09159572	      1.10660241	     -0.23677788	      0.00000000	      0.50000000	      0.00000000	      0.25000000	     94.40403851	      2.00209036	     -1.05832803	     87.45532150	      1.52638331	     22.41051461	     -5.50765225	      0.00000000	      0.00000000	     52.05237797	    -12.73989214	     -0.52391320	     41.29133044	      0.72066967	      5.59953650	     -0.26891793	      0.00000000	      0.00000000	    -44.65866207	      2.53665469	      6.28814133	     89.75312485	     -3.39081213	     32.64696919	     37.18869929	     26.54793047	      0.00000000	      0.00000000	     89.75134805	     -8.79559266	     34.07724122	     37.87207046	     25.94664712	      0.00000000	      0.00000000
      0.02500000	    -28.25433607	     -6.07396473	     -5.14415156	      0.09180505	      1.10693647	     -0.23666349	      0.00000000	      0.50000000	      0.00000000	      0.25000000	     94.16928426	      1.81239452	     -0.95108837	     87.31931195	      1.52400949	     22.70165738	     -4.83803904	      0.00000000	      0.00000000	     51.61456450	    -12.23116503	      0.42597717	     40.65274121	      0.70952418	      5.07047427	     -1.23085799	      0.00000000	      0.00000000	    -44.72271228	      2.41484285	      6.15520305	     89.75455926	     -4.75778709	     35.21292571	     37.93185543	     26.15548042	      0.00000000	      0.00000000	     89.75734204	     -7.74827116	     32.42790754	     37.31381981	     25.12329958	      0.00000000	      0.00000000
      0.03000000	    -28.19804098	     -5.94207970	     -4.99551866	      0.09183816	      1.10719345	     -0.23703913	      0.00000000	      0.50000000	      0.00000000	      0.25000000	     94.10855943	      1.52890510	     -0.90513192	     87.32841690	      1.52416841	     22.79574955	     -4.56130186	      0.00000000	      0.00000000	     51.28438644	    -11.83456412	      0.74179265	     40.14795490	      0.70071400	      4.90903744	     -1.80353283	      0.00000000	      0.00000000	    -44.81758319	      2.45088763	      6.01776250	     89.75523501	     -4.62729126	     34.71547970	     37.84166880	     26.82614681	      0.00000000	      0.00000000	     89.75676743	     -7.65636740	     32.05532298	     37.17457567	     25.88388726	      0.00000000	      0.00000000
      0.03500000	    -27.79751164	     -5.88144220	     -4.84286021	      0.09202532	      1.10831660	     -0.23723168	      0.00000000	      0.50000000	      0.00000000	      0.25000000	     93.64760518	      1.35111762	     -0.91313881	     87.29440891	      1.52357485	     22.81531156	     -4.62572546	      0.00000000	      0.00000000	     50.60433949	    -11.54125475	      1.02443948	     39.67822371	      0.69251565	      4.71031492	     -2.28522107	      0.00000000	      0.00000000	    -45.47703357	      2.47775145	      6.16705168	     89.75843691	     -4.44290455	     33.42053598	     38.11423636	     27.80438040	      0.00000000	      0.00000000	     89.75001575	     -7.47997283	     31.20944353	     37.86083480	     27.03464597	      0.00000000	      0.00000000
      0.04000000	    -28.14656226	     -5.74598528	     -5.25217689	      0.09206719	      1.10760238	     -0.23583247	      0.00000000	      0.50000000	      0.00000000	      0.25000000	     94.08000083	      1.83900685	     -0.78727959	     87.27243020	      1.52319125	     22.68819434	     -4.63132110	      0.00000000	      0.00000000	     50.91123758	    -11.87889107	      0.58411724	     39.75427018	      0.69384291	      4.88915752	     -2.02892876	      0.00000000	      0.00000000	    -44.95920341	      2.05638557	      6.23818290	     89.75511431	     -4.09665533	     33.15715727	     37.38135663	     28.11692140	      0.00000000	      0.00000000	     89.75605151	     -7.44767017	     31.54064058	     37.02366914	     27.41916856	      0.00000000	      0.00000000
      0.04500000	    -28.94178712	     -6.56810554	     -5.90871133	      0.09054639	      1.10545597	     -0.23223814	      0.00000000	      0.50000000	      0.00000000	      0.25000000	     94.92457426	      3.01078580	     -1.50620438	     87.04815930	      1.51927699	     22.24599748	     -5.50079974	      0.00000000	      0.00000000	     52.30987438	    -13.44544507	      0.58325580	     40.62167386	      0.70898196	      5.37387409	     -0.92963117	      0.00000000	      0.00000000	    -44.08357789	      2.20446944	      7.22431208	     89.75276637	     -3.90450121	     33.18185643	     36.94615153	     28.23079241	      0.00000000	      0.00000000	     89.75365234	     -7.54572390	     31.72480834	     36.86781931	     27.60114014	      0.00000000	      0.00000000
      0.05000000	    -29.04773718	     -6.70094232	     -5.89809485	      0.09034409	      1.10532574	     -0.23211086	      0.00000000	      0.50000000	      0.00000000	      0.25000000	     95.00894752	      3.03281001	     -1.63984647	     86.99973525	      1.51843183	     22.16500172	     -5.72279792	      0.00000000	      0.00000000	     52.37925756	    -13.45755273	      0.95845765	     40.49229731	      0.70672391	      5.42217284	     -1.09237729	      0.00000000	      0.00000000	    -43.98429507	      2.32156370	      7.31208260	     89.75057865	     -4.09949843	     33.82206705	     38.01309800	     23.53626779	      0.00000000	      0.00000000	     89.75497189	     -7.82642243	     32.83969162	     37.90954973	     22.67843245	      0.00000000	      0.00000000
      0.05500000	    -29.09768805	     -6.69940730	     -5.96074991	      0.09017365	      1.10532378	     -0.23197374	      0.00000000	      0.50000000	      0.00000000	      0.25000000	     95.03163774	      3.16209387	     -1.62107880	     86.98117502	      1.51810789	     22.18554890	     -5.84577387	      0.00000000	      0.00000000	     52.40919246	    -13.49613739	      0.93307167	     40.45707170	      0.70610911	      5.41451703	     -1.12396045	      0.00000000	      0.00000000	    -43.95238115	      2.28277035	      7.35614501	     89.75055948	     -3.98988512	     33.46710039	     37.79287865	     24.49792125	      0.00000000	      0.00000000	     89.75440087	     -7.69679219	     32.39701765	     37.67056040	     23.73548308	      0.00000000	      0.00000000
      0.06000000	    -29.08213423	     -6.68402345	     -5.91203823	      0.09016040	      1.10529887	     -0.23204406	      0.00000000	      0.50000000	      0.00000000	      0.25000000	     95.05074114	      3.07549053	     -1.60073720	     87.00374054	      1.51850173	     22.13536420	     -5.74703792	      0.00000000	      0.00000000	     52.39211643	    -13.43662469	      0.95912595	     40.43957810	      0.70580379	      5.38758534	     -1.17955314	      0.00000000	      0.00000000	    -43.95561548	      2.30637533	      7.26996522	     89.74878096	     -3.70336212	     32.69186865	     36.84518531	     28.51498017	      0.00000000	      0.00000000	     89.75447367	     -7.44100993	     31.30187947	     36.69570120	     27.88415517	      0.00000000	      0.00000000
      0.06500000	    -29.09739491	     -6.70963597	     -5.92019824	      0.09014963	      1.10526222	     -0.23198397	      0.00000000	      0.50000000	      0.00000000	      0.25000000	     95.06119666	      3.09054042	     -1.63011413	     87.00050972	      1.51844535	     22.13081978	     -5.80083155	      0.00000000	      0.00000000	     52.40131808	    -13.46937847	      0.97558565	     40.43044404	      0.70564437	      5.44298954	     -1.16478525	      0.00000000	      0.00000000	    -43.93763062	      2.29806694	      7.34383630	     89.75158030	     -4.27225240	     33.93358807	     37.06545683	     28.93732702	      0.00000000	      0.00000000	     89.75677500	     -7.82801173	     32.64399042	     36.92732067	     28.26497103	      0.00000000	      0.00000000
